<svg xmlns="http://www.w3.org/2000/svg" viewBox="0 0 64 65" id="paper"><circle cx="56.7" cy="26.9" r=".3"></circle><circle cx="8" cy="15.5" r=".3"></circle><circle cx="26.4" cy="2.3" r=".3"></circle><circle cx="50.3" cy="3.6" r=".3"></circle><circle cx="5.4" cy="34.1" r=".3"></circle><path fill="#f16723" d="M8 5h-.5v-.5c0-.3-.2-.5-.5-.5-.2 0-.4.2-.4.5V5h-.5c-.3 0-.5.2-.5.5 0 .2.2.5.5.5h.5v.5c0 .3.2.5.5.5s.5-.2.5-.5V6H8c.3 0 .5-.2.5-.5S8.3 5 8 5z"></path><circle cx="46.9" cy="2.6" r=".4"></circle><circle cx="55.3" cy="22.7" r=".4"></circle><path fill="#fbd20a" d="M54 10.5c-.9 0-1.6-.7-1.6-1.6s.7-1.6 1.6-1.6c.9 0 1.6.7 1.6 1.6s-.7 1.6-1.6 1.6zm0-2.3c-.4 0-.7.3-.7.7s.3.7.7.7c.4 0 .7-.3.7-.7s-.3-.7-.7-.7z"></path><path fill="#4e9bd4" d="M58.7 47.5h-.5V47c0-.3-.2-.5-.5-.5s-.5.2-.5.5v.5h-.5c-.3 0-.5.2-.5.5s.2.5.5.5h.5v.5c0 .3.2.5.5.5s.5-.2.5-.5v-.5h.5c.3 0 .5-.2.5-.5s-.3-.5-.5-.5z"></path><path fill="#fbd20a" d="M7 40.2h-.4v-.5c0-.3-.2-.5-.5-.5s-.5.2-.5.5v.5h-.5c-.3 0-.5.2-.5.5s.2.5.5.5h.5v.5c0 .3.2.5.5.5s.5-.2.5-.5v-.5H7c.3 0 .5-.2.5-.5s-.2-.5-.5-.5z"></path><path fill="#4e9bd4" d="M10.7 59.8c-.6 0-1.2-.5-1.2-1.2s.5-1.2 1.2-1.2 1.2.5 1.2 1.2-.6 1.2-1.2 1.2zm0-1.3c-.1 0-.2.1-.2.2s.1.2.2.2.2-.1.2-.2-.1-.2-.2-.2z"></path><path fill="#fff" d="M10.5 5.7H44v47H10.5z"></path><path d="M44 53.6H10.5c-.5 0-.8-.4-.8-.8v-47c0-.5.4-.8.8-.8H44c.5 0 .8.4.8.8v47c0 .4-.4.8-.8.8zm-32.7-1.7h31.8V6.6H11.3v45.3z"></path><path fill="#fff" d="M14.6 10h33.5v47H14.6z"></path><path d="M48.1 57.9H14.6c-.5 0-.8-.4-.8-.8V10c0-.5.4-.8.8-.8h33.5c.5 0 .8.4.8.8v47c0 .5-.4.9-.8.9zm-32.6-1.7h31.8V10.8H15.5v45.4z"></path><path fill="#fff" d="M18.8 14.1h33.5v47H18.8z"></path><path d="M52.2 62H18.8c-.5 0-.8-.4-.8-.8v-47c0-.5.4-.8.8-.8h33.5c.5 0 .8.4.8.8v47c0 .4-.4.8-.9.8zm-32.6-1.7h31.8V15H19.6v45.3z"></path><path d="M47.4 29.2H23.6c-.5 0-.8-.4-.8-.8s.4-.8.8-.8h23.7c.5 0 .8.4.8.8s-.3.8-.7.8zM39.7 23.2h-16c-.5 0-.8-.4-.8-.8s.4-.8.8-.8h16c.5 0 .8.4.8.8s-.4.8-.8.8zM47.4 33H23.6c-.5 0-.8-.4-.8-.8 0-.5.4-.8.8-.8h23.7c.5 0 .8.4.8.8.1.4-.3.8-.7.8zM47.4 36.7H23.6c-.5 0-.8-.4-.8-.8s.4-.8.8-.8h23.7c.5 0 .8.4.8.8s-.3.8-.7.8zM47.4 40.4H23.6c-.5 0-.8-.4-.8-.8s.4-.8.8-.8h23.7c.5 0 .8.4.8.8s-.3.8-.7.8zM47.4 44.1H23.6c-.5 0-.8-.4-.8-.8s.4-.8.8-.8h23.7c.5 0 .8.4.8.8s-.3.8-.7.8zM47.4 47.9H23.6c-.5 0-.8-.4-.8-.8s.4-.8.8-.8h23.7c.5 0 .8.4.8.8s-.3.8-.7.8zM47.4 51.6H23.6c-.5 0-.8-.4-.8-.8s.4-.8.8-.8h23.7c.5 0 .8.4.8.8s-.3.8-.7.8zM39.7 55.3h-16c-.5 0-.8-.4-.8-.8s.4-.8.8-.8h16c.5 0 .8.4.8.8s-.4.8-.8.8z"></path></svg>